<?xml version="1.0" standalone="no"?>
<!DOCTYPE svg PUBLIC "-//W3C//DTD SVG 20010904//EN"
 "http://www.w3.org/TR/2001/REC-SVG-20010904/DTD/svg10.dtd">
<svg version="1.0" xmlns="http://www.w3.org/2000/svg"
 width="300.000000pt" height="245.000000pt" viewBox="0 0 300.000000 245.000000"
 preserveAspectRatio="xMidYMid meet">
<metadata>
Created by potrace 1.10, written by Peter Selinger 2001-2011
</metadata>
<g transform="translate(0.000000,245.000000) scale(0.100000,-0.100000)"
fill="#000000" stroke="none">
<path d="M807 2162 c-10 -11 -20 -44 -23 -78 -5 -49 -3 -62 10 -73 15 -12 21
-11 45 7 27 20 30 20 44 4 26 -30 97 -145 92 -150 -2 -3 -32 12 -66 32 -89 53
-104 54 -206 14 -48 -19 -115 -41 -148 -48 -69 -15 -97 -35 -93 -64 2 -14 15
-24 43 -32 l40 -11 -45 -28 c-25 -16 -83 -49 -130 -73 -63 -34 -105 -66 -162
-124 -43 -43 -78 -83 -78 -88 0 -4 18 -11 39 -15 38 -6 44 -3 128 63 103 81
209 142 350 202 l103 43 62 -18 61 -19 -80 -37 c-51 -24 -88 -47 -101 -67 -12
-16 -22 -33 -22 -36 0 -3 -15 -27 -34 -53 -69 -97 -76 -121 -76 -247 0 -66 -4
-117 -10 -121 -5 -3 -10 -15 -10 -26 0 -19 0 -19 39 1 45 23 44 21 65 155 22
139 28 157 82 225 43 55 53 62 113 79 124 36 117 36 133 -11 14 -46 48 -66 48
-29 0 25 33 61 56 61 13 0 15 -8 9 -50 -9 -63 5 -65 64 -11 l42 39 70 -35 70
-35 -1 -107 c-2 -93 -6 -115 -32 -181 -48 -118 -37 -221 25 -228 27 -3 27 -3
27 60 0 59 4 70 48 138 l47 75 -2 135 -1 135 -34 30 c-18 16 -44 37 -57 46
-24 15 -24 16 39 31 l63 15 96 -99 96 -100 7 -86 c9 -103 31 -137 83 -126 44
9 52 20 34 52 -9 15 -24 75 -34 133 l-18 107 -93 93 c-51 52 -91 95 -89 97 1
2 30 -4 63 -12 108 -28 182 -16 182 29 0 21 -20 29 -61 26 -21 -1 -80 13 -145
34 -87 30 -118 36 -156 32 -27 -4 -48 -3 -48 0 0 9 104 133 139 167 32 30 57
30 68 -1 3 -10 13 -26 21 -36 14 -16 17 -15 43 25 15 23 25 47 21 54 -18 30
-70 80 -95 92 -50 22 -63 15 -122 -60 -32 -40 -61 -74 -66 -76 -4 -2 -13 17
-20 41 -7 28 -24 57 -45 78 -32 31 -40 34 -92 33 -92 -1 -164 -48 -197 -127
l-16 -38 -25 28 c-13 16 -44 58 -67 93 -46 71 -79 87 -110 52z m60 -338 c19
-14 33 -28 31 -30 -2 -2 -28 3 -58 11 -30 8 -73 15 -94 15 -52 0 -42 8 25 19
30 5 56 9 58 10 2 0 19 -11 38 -25z"/>
<path d="M1529 879 c-20 -38 -5 -147 40 -289 23 -74 50 -148 58 -165 20 -38
73 -95 89 -95 15 0 74 66 74 83 1 7 10 -7 22 -31 29 -60 51 -70 84 -37 30 30
89 153 103 214 10 45 21 65 21 38 0 -9 5 -63 11 -119 17 -162 51 -196 185
-185 104 9 133 40 99 106 -16 33 -39 41 -112 41 -43 0 -53 3 -58 20 -8 27 0
37 35 45 25 5 30 12 30 34 0 28 -20 53 -52 64 -20 7 -23 29 -8 57 9 17 90 37
133 32 9 -1 17 3 17 8 0 6 6 10 14 10 10 0 14 -16 14 -63 0 -53 24 -201 50
-312 10 -38 47 -45 80 -14 l24 21 14 -21 c8 -11 32 -25 54 -31 34 -9 46 -8 80
10 22 11 56 42 75 68 33 45 35 50 35 135 0 116 -20 182 -72 241 -45 52 -84 76
-122 76 -36 0 -76 -20 -77 -39 0 -12 -3 -10 -10 5 -14 29 -65 57 -89 49 -11
-4 -20 -9 -20 -13 0 -4 -4 -13 -9 -21 -7 -11 -14 -10 -40 8 -43 31 -85 41
-164 42 -76 0 -93 -8 -106 -55 l-9 -31 -1 28 c-1 31 -51 87 -78 87 -18 0 -57
-87 -72 -163 -7 -31 -16 -57 -20 -57 -4 0 -17 11 -29 25 -28 32 -37 31 -74 -6
-37 -37 -39 -35 -73 77 -14 45 -34 89 -45 99 -11 10 -20 24 -20 32 0 23 -67
17 -81 -8z m994 -201 l41 -37 4 -88 c5 -98 1 -106 -55 -118 l-33 -7 0 134 c0
73 -3 144 -5 158 -3 14 -3 18 1 10 3 -8 24 -32 47 -52z"/>
<path d="M971 864 c-19 -24 -21 -40 -21 -143 1 -159 16 -319 34 -346 25 -38
67 -49 138 -36 74 13 112 37 116 75 5 44 -13 56 -83 56 l-62 0 -7 123 c-9 161
-23 232 -53 268 -30 36 -36 36 -62 3z"/>
<path d="M1359 863 c-47 -59 -79 -217 -79 -395 0 -113 6 -128 52 -128 21 0 33
8 48 33 11 17 20 39 20 47 1 15 38 66 43 59 2 -2 9 -24 16 -49 17 -60 37 -80
79 -80 l35 0 -6 93 c-8 134 -70 336 -121 394 -40 46 -65 53 -87 26z m70 -314
c13 -39 14 -42 2 -35 -13 8 -32 66 -21 66 4 0 13 -14 19 -31z"/>
<path d="M722 855 c-25 -11 -39 -28 -59 -72 -64 -145 -26 -463 57 -473 57 -8
70 16 73 134 l2 80 34 7 c43 9 85 40 89 67 2 11 -7 31 -19 43 -16 16 -29 20
-56 16 -81 -13 -88 30 -10 62 73 30 82 36 85 55 9 42 -7 63 -57 80 -60 19 -96
20 -139 1z"/>
</g>
</svg>
